<!-- Created with Inkscape (http://www.inkscape.org/) -->
<svg id="svg8" xmlns:rdf="http://www.w3.org/1999/02/22-rdf-syntax-ns#" xmlns="http://www.w3.org/2000/svg" height="32" width="32" version="1.1" xmlns:cc="http://creativecommons.org/ns#" xmlns:dc="http://purl.org/dc/elements/1.1/" viewBox="0 0 8.466666 8.466666">
 <metadata id="metadata5">
  <rdf:RDF>
   <cc:Work rdf:about="">
    <dc:format>image/svg+xml</dc:format>
    <dc:type rdf:resource="http://purl.org/dc/dcmitype/StillImage"/>
    <dc:title/>
   </cc:Work>
  </rdf:RDF>
 </metadata>
 <g id="layer2" transform="translate(0 -288.53)">
  <path id="path57-3" style="paint-order:markers fill stroke" d="m.86251 294.68.004105-3.9123 3.3667-1.9434 3.3667 1.9434.0041 3.9119-3.3724 2.0325zm6.0302-.40303v-3.1041l-2.6599-1.5521-2.6599 1.5521v3.1858l2.6599 1.5521z" stroke-width=".0077169" fill="#333"/>
  <path id="path57-6" style="paint-order:markers fill stroke" d="m.62476 294.81.004394-4.1883 3.6042-2.0804 3.6042 2.0804.00439 4.1878-3.6103 2.1759z" stroke-width=".0077169" fill="#ccc"/>
  <path id="path59" d="m15.9 10.5a11.752 12.047 0 0 0 -11.447 9.369l-.0018 2.76 11.543 7.043 11.555-7.043-.002-1.568a11.752 12.047 0 0 0 -11.647 -10.561z" transform="matrix(.26458 0 0 .26458 0 288.53)" stroke-width=".26884" fill="#d40000"/>
  <path id="path90" d="m15.994 11.688c-.817-.001-1.12.012-1.447.062-.835.127-1.733.365-2.438.645-.583.231-1.482.709-2.013 1.07-2.458 1.671-4.0986 4.158-4.6663 7.072-.1613.828-.1905 1.17-.1875 2.227.0004.147.0111.229.0137.357l10.738 6.551 10.756-6.557c.111-3.035-1.008-6.039-3.178-8.238-.906-.918-1.762-1.547-2.855-2.096-1.007-.505-2.008-.822-3.19-1.011-.436-.069-.630-.082-1.533-.082z" transform="matrix(.26458 0 0 .26458 0 288.53)" stroke-width=".16353" fill="#ff7f2a"/>
  <path id="path90-2" d="m15.996 13.666c-.667 0-.915.010-1.182.051-.681.104-1.414.297-1.99.525-.476.189-1.209.579-1.642.873-2.0062 1.364-3.3456 3.396-3.809 5.774-.1316.675-.1547.954-.1523 1.816.0021.745.0462 1.163.1563 1.709l8.617 5.258 8.602-5.244c.579-2.94-.303-6.018-2.416-8.16-.740-.750-1.438-1.261-2.33-1.709-.822-.413-1.637-.672-2.602-.827-.356-.057-.515-.065-1.252-.066z" transform="matrix(.26458 0 0 .26458 0 288.53)" stroke-width=".13808" fill="#4d4d4d"/>
  <path id="path90-2-6" d="m4.1718 295.89c-.14457-.01-.26426-.0342-.37981-.077-.42443-.15744-.73820-.51983-.83865-.96864-.022902-.10232-.028945-.16195-.029302-.28915-.0003608-.12861.00313-.1702.022759-.27093.069096-.35462.26896-.65749.56808-.86085.06463-.0439.17387-.102.24484-.13014.085805-.034.19504-.0629.29670-.0784.0398-.006.076701-.008.17620-.008.10983.00008.13360.001.18669.01.14385.023.26558.0617.38806.12317.13302.0668.23732.14335.34755.25509.35297.35777.47767.89082.32133 1.3736-.16045.49541-.58755.85276-1.0908.91264-.054407.006-.17389.0112-.21369.008z" stroke-width=".11164" fill="#333"/>
  <path id="path57" style="paint-order:markers fill stroke" d="m1.1087 294.56.0038-3.6681 3.1208-1.8221 3.1208 1.8221.0038 3.6677-3.1261 1.9057zm5.5898-.37788v-2.9104l-2.4656-1.4552-2.4656 1.4552v2.987l2.4656 1.4552z" stroke-width=".0077169" fill="#333"/>
 </g>
</svg>
