<?xml version="1.0" encoding="UTF-8" standalone="no"?>
<!-- Created with Inkscape (http://www.inkscape.org/) -->

<svg
   xmlns:dc="http://purl.org/dc/elements/1.1/"
   xmlns:cc="http://creativecommons.org/ns#"
   xmlns:rdf="http://www.w3.org/1999/02/22-rdf-syntax-ns#"
   xmlns:svg="http://www.w3.org/2000/svg"
   xmlns="http://www.w3.org/2000/svg"
   xmlns:sodipodi="http://sodipodi.sourceforge.net/DTD/sodipodi-0.dtd"
   xmlns:inkscape="http://www.inkscape.org/namespaces/inkscape"
   width="32"
   height="32"
   viewBox="0 0 8.466666 8.466666"
   version="1.1"
   id="svg8"
   inkscape:version="0.91 r13725"
   sodipodi:docname="mantle_icon_work.svg"
   inkscape:export-filename="/home/takanori/Developments/Dev_777_GitKraken/Mantle/static/mantle_icon.png"
   inkscape:export-xdpi="720"
   inkscape:export-ydpi="720">
  <defs
     id="defs2">
    <clipPath
       clipPathUnits="userSpaceOnUse"
       id="clipPath3606">
      <path
         sodipodi:nodetypes="ccccccc"
         inkscape:connector-curvature="0"
         id="path3608"
         d="m 48.128752,180.03077 0.06893,-64.91456 56.614515,-32.245208 56.61451,32.245208 0.0689,64.9077 -56.70989,33.72462 z"
         style="fill:#f4eed7;stroke-width:0.00771688;paint-order:markers fill stroke" />
    </clipPath>
    <clipPath
       clipPathUnits="userSpaceOnUse"
       id="clipPath3610">
      <path
         sodipodi:nodetypes="ccccccc"
         inkscape:connector-curvature="0"
         id="path3612"
         d="m 1.1332745,294.52608 0.00377,-3.59805 3.0962831,-1.78727 3.0962824,1.78727 0.00377,3.59767 -3.1014993,1.86927 z"
         style="fill:#f4eed7;stroke-width:0.00771688;paint-order:markers fill stroke" />
    </clipPath>
    <clipPath
       clipPathUnits="userSpaceOnUse"
       id="clipPath3614">
      <path
         sodipodi:nodetypes="ccccccc"
         inkscape:connector-curvature="0"
         id="path3616"
         d="m 46.691812,180.74371 0.07068,-66.56317 58.052344,-33.064129 58.05232,33.064129 0.0707,66.55614 -58.15014,34.58111 z"
         style="fill:#f4eed7;stroke-width:0.00771688;paint-order:markers fill stroke" />
    </clipPath>
  </defs>
  <sodipodi:namedview
     id="base"
     pagecolor="#ffffff"
     bordercolor="#666666"
     borderopacity="1.0"
     inkscape:pageopacity="0.0"
     inkscape:pageshadow="2"
     inkscape:zoom="22.627418"
     inkscape:cx="12.625143"
     inkscape:cy="18.99779"
     inkscape:document-units="px"
     inkscape:current-layer="layer2"
     showgrid="true"
     inkscape:window-width="1855"
     inkscape:window-height="1056"
     inkscape:window-x="65"
     inkscape:window-y="24"
     inkscape:window-maximized="1"
     showguides="false"
     inkscape:snap-others="true"
     inkscape:snap-global="true"
     units="px"
     inkscape:guide-bbox="true">
    <inkscape:grid
       type="xygrid"
       id="grid48" />
  </sodipodi:namedview>
  <metadata
     id="metadata5">
    <rdf:RDF>
      <cc:Work
         rdf:about="">
        <dc:format>image/svg+xml</dc:format>
        <dc:type
           rdf:resource="http://purl.org/dc/dcmitype/StillImage" />
        <dc:title />
      </cc:Work>
    </rdf:RDF>
  </metadata>
  <g
     inkscape:groupmode="layer"
     id="layer3"
     inkscape:label="BackColour"
     style="display:inline" />
  <g
     inkscape:groupmode="layer"
     id="layer2"
     inkscape:label="main"
     transform="translate(0,-288.53334)"
     style="display:inline">
    <path
       style="display:inline;fill:#333333;stroke-width:0.00771688;paint-order:markers fill stroke"
       d="m 0.86250621,294.67963 0.004105,-3.91231 3.36672117,-1.94338 3.366721,1.94338 0.0041,3.9119 -3.3723931,2.03253 z m 6.03018249,-0.40303 0,-3.10413 -2.659859,-1.55206 -2.6598591,1.55206 0,3.18582 2.6598591,1.55206 z"
       id="path57-3"
       inkscape:connector-curvature="0"
       sodipodi:nodetypes="cccccccccccccc" />
    <path
       style="display:inline;fill:#cccccc;stroke-width:0.00771688;paint-order:markers fill stroke"
       d="m 0.62475634,294.81448 0.004394,-4.18827 3.60418154,-2.08044 3.6041814,2.08044 0.00439,4.18782 -3.6102534,2.17589 z"
       id="path57-6"
       inkscape:connector-curvature="0"
       sodipodi:nodetypes="ccccccc" />
    <circle
       id="path59"
       cx="104.31254"
       cy="180.34064"
       style="fill:#d40000;stroke-width:0.26883534"
       clip-path="url(#clipPath3614)"
       r="59.143776"
       transform="matrix(0.05257278,0,0,0.05389106,-1.2770795,284.78028)" />
    <path
       style="fill:#ff7f2a;stroke-width:0.16353308"
       d="m 4.0975882,297.47238 c -0.3188518,-0.0217 -0.5828264,-0.0746 -0.837674,-0.16802 -0.9361069,-0.3433 -1.6281221,-1.13353 -1.8496747,-2.11219 -0.050512,-0.22311 -0.063839,-0.35315 -0.064627,-0.63051 -7.967e-4,-0.28043 0.00691,-0.37113 0.050196,-0.59078 0.1523944,-0.77328 0.5932067,-1.43371 1.2529278,-1.87715 0.142544,-0.0958 0.3834729,-0.22243 0.5400156,-0.28378 0.1892459,-0.0742 0.430173,-0.13711 0.6543839,-0.17092 0.087781,-0.0132 0.169167,-0.0168 0.3886178,-0.0166 0.2422368,1.8e-4 0.2946689,0.003 0.4117494,0.0213 0.317256,0.0502 0.5857399,0.13446 0.855884,0.26859 0.2933789,0.14566 0.5234085,0.31258 0.7665421,0.55623 0.7784981,0.78016 1.0535273,1.9425 0.7086986,2.99516 -0.3538766,1.08027 -1.2958554,1.8595 -2.405738,1.99008 -0.1199973,0.0141 -0.3835141,0.0245 -0.4713012,0.0185 z"
       id="path90"
       inkscape:connector-curvature="0"
       clip-path="url(#clipPath3610)"
       transform="matrix(0.98568918,0,0,0.99697343,0.06058229,0.88607067)" />
    <path
       style="fill:#4d4d4d;stroke-width:0.13807806"
       d="m 102.7866,223.25042 c -4.758167,-0.3182 -8.697426,-1.09782 -12.500475,-2.47399 -13.969372,-5.05492 -24.296206,-16.69058 -27.602401,-31.10076 -0.753769,-3.28533 -0.952663,-5.19998 -0.96442,-9.28391 -0.01189,-4.12932 0.103109,-5.46478 0.749064,-8.69893 2.274158,-11.38618 8.852331,-21.11068 18.697245,-27.64008 2.127161,-1.41079 5.722503,-3.27502 8.058565,-4.17847 2.824092,-1.09219 6.419407,-2.01881 9.765278,-2.51679 1.309934,-0.19496 2.524444,-0.24616 5.799274,-0.24451 3.61486,0.003 4.3973,0.042 6.14447,0.31471 4.73436,0.73919 8.7409,1.97975 12.77222,3.95471 4.37805,2.14483 7.81074,4.60261 11.43899,8.19025 11.6174,11.48736 15.72162,28.60231 10.57579,44.10206 -5.28084,15.90645 -19.33784,27.38015 -35.90044,29.30291 -1.7907,0.20788 -5.72312,0.36041 -7.03316,0.2728 z"
       id="path90-2"
       inkscape:connector-curvature="0"
       clip-path="url(#clipPath3606)"
       transform="matrix(0.05390795,0,0,0.05525971,-1.4168838,284.5723)" />
    <path
       style="fill:#333333;stroke-width:0.1116367"
       d="m 4.1717865,295.88566 c -0.1445689,-0.01 -0.2642563,-0.0342 -0.3798052,-0.077 -0.4244346,-0.15744 -0.7381971,-0.51983 -0.8386499,-0.96864 -0.022902,-0.10232 -0.028945,-0.16195 -0.029302,-0.28915 -3.608e-4,-0.12861 0.00313,-0.1702 0.022759,-0.27093 0.069096,-0.35462 0.2689623,-0.65749 0.5680826,-0.86085 0.06463,-0.0439 0.173868,-0.102 0.244845,-0.13014 0.085805,-0.034 0.1950424,-0.0629 0.2967008,-0.0784 0.0398,-0.006 0.076701,-0.008 0.1762007,-0.008 0.1098315,8e-5 0.1336043,0.001 0.1866884,0.01 0.1438459,0.023 0.2655774,0.0617 0.3880615,0.12317 0.1330196,0.0668 0.2373156,0.14335 0.3475537,0.25509 0.3529742,0.35777 0.4776733,0.89082 0.3213266,1.37356 -0.1604489,0.49541 -0.5875457,0.85276 -1.0907712,0.91264 -0.054407,0.006 -0.1738866,0.0112 -0.2136898,0.008 z"
       id="path90-2-6"
       inkscape:connector-curvature="0"
       clip-path="none" />
    <path
       style="fill:#333333;stroke-width:0.00771688;paint-order:markers fill stroke"
       d="m 1.1086821,294.56031 0.0038,-3.66812 3.1208452,-1.82207 3.1208448,1.82207 0.0038,3.66773 -3.1261027,1.90566 z m 5.5897902,-0.37788 0,-2.91037 -2.465606,-1.45518 -2.465606,1.45518 0,2.98696 2.465606,1.45518 z"
       id="path57"
       inkscape:connector-curvature="0"
       sodipodi:nodetypes="cccccccccccccc" />
  </g>
</svg>
